<mxfile host="app.diagrams.net" modified="2021-06-30T02:19:34.795Z" agent="5.0 (X11; Linux x86_64) AppleWebKit/537.36 (KHTML, like Gecko) Chrome/91.0.4472.101 Safari/537.36" etag="kZOJAHi745fIesrvB7ai" version="14.8.2" type="github" pages="2">
  <diagram id="0ndISeXUmmei2BmkHa93" name="第 1 页">
    <mxGraphModel dx="1148" dy="621" grid="1" gridSize="10" guides="1" tooltips="1" connect="1" arrows="1" fold="1" page="1" pageScale="1" pageWidth="850" pageHeight="1100" math="0" shadow="0">
      <root>
        <mxCell id="0" />
        <mxCell id="1" parent="0" />
        <mxCell id="GA6zOthMfiOWwRpfHC2D-1" value="slot0" style="rounded=0;whiteSpace=wrap;html=1;" vertex="1" parent="1">
          <mxGeometry x="130" y="150" width="60" height="60" as="geometry" />
        </mxCell>
        <mxCell id="GA6zOthMfiOWwRpfHC2D-2" value="slot1" style="rounded=0;whiteSpace=wrap;html=1;" vertex="1" parent="1">
          <mxGeometry x="130" y="210" width="60" height="60" as="geometry" />
        </mxCell>
        <mxCell id="GA6zOthMfiOWwRpfHC2D-3" value="" style="rounded=0;whiteSpace=wrap;html=1;" vertex="1" parent="1">
          <mxGeometry x="190" y="150" width="100" height="30" as="geometry" />
        </mxCell>
        <mxCell id="GA6zOthMfiOWwRpfHC2D-4" value="" style="rounded=0;whiteSpace=wrap;html=1;" vertex="1" parent="1">
          <mxGeometry x="190" y="180" width="100" height="30" as="geometry" />
        </mxCell>
        <mxCell id="GA6zOthMfiOWwRpfHC2D-5" value="" style="rounded=0;whiteSpace=wrap;html=1;" vertex="1" parent="1">
          <mxGeometry x="190" y="210" width="100" height="30" as="geometry" />
        </mxCell>
        <mxCell id="GA6zOthMfiOWwRpfHC2D-6" value="" style="rounded=0;whiteSpace=wrap;html=1;" vertex="1" parent="1">
          <mxGeometry x="190" y="240" width="100" height="30" as="geometry" />
        </mxCell>
        <mxCell id="GA6zOthMfiOWwRpfHC2D-7" value="..." style="rounded=0;whiteSpace=wrap;html=1;" vertex="1" parent="1">
          <mxGeometry x="130" y="270" width="60" height="60" as="geometry" />
        </mxCell>
        <mxCell id="GA6zOthMfiOWwRpfHC2D-8" value="" style="rounded=0;whiteSpace=wrap;html=1;" vertex="1" parent="1">
          <mxGeometry x="190" y="270" width="100" height="30" as="geometry" />
        </mxCell>
        <mxCell id="GA6zOthMfiOWwRpfHC2D-9" value="" style="rounded=0;whiteSpace=wrap;html=1;" vertex="1" parent="1">
          <mxGeometry x="190" y="300" width="100" height="30" as="geometry" />
        </mxCell>
        <mxCell id="GA6zOthMfiOWwRpfHC2D-10" value="slotX" style="rounded=0;whiteSpace=wrap;html=1;" vertex="1" parent="1">
          <mxGeometry x="130" y="330" width="60" height="60" as="geometry" />
        </mxCell>
        <mxCell id="GA6zOthMfiOWwRpfHC2D-11" value="cnode cap" style="rounded=0;whiteSpace=wrap;html=1;" vertex="1" parent="1">
          <mxGeometry x="190" y="330" width="100" height="30" as="geometry" />
        </mxCell>
        <mxCell id="GA6zOthMfiOWwRpfHC2D-12" value="" style="rounded=0;whiteSpace=wrap;html=1;" vertex="1" parent="1">
          <mxGeometry x="190" y="360" width="100" height="30" as="geometry" />
        </mxCell>
        <mxCell id="GA6zOthMfiOWwRpfHC2D-13" value="..." style="rounded=0;whiteSpace=wrap;html=1;" vertex="1" parent="1">
          <mxGeometry x="130" y="390" width="60" height="60" as="geometry" />
        </mxCell>
        <mxCell id="GA6zOthMfiOWwRpfHC2D-14" value="" style="rounded=0;whiteSpace=wrap;html=1;" vertex="1" parent="1">
          <mxGeometry x="190" y="390" width="100" height="30" as="geometry" />
        </mxCell>
        <mxCell id="GA6zOthMfiOWwRpfHC2D-15" value="" style="rounded=0;whiteSpace=wrap;html=1;" vertex="1" parent="1">
          <mxGeometry x="190" y="420" width="100" height="30" as="geometry" />
        </mxCell>
        <mxCell id="GA6zOthMfiOWwRpfHC2D-20" value="rootserver的cnode" style="text;html=1;strokeColor=none;fillColor=none;align=center;verticalAlign=middle;whiteSpace=wrap;rounded=0;" vertex="1" parent="1">
          <mxGeometry x="20" y="130" width="120" height="20" as="geometry" />
        </mxCell>
        <mxCell id="GA6zOthMfiOWwRpfHC2D-21" value="slot0" style="rounded=0;whiteSpace=wrap;html=1;" vertex="1" parent="1">
          <mxGeometry x="437" y="344" width="60" height="60" as="geometry" />
        </mxCell>
        <mxCell id="GA6zOthMfiOWwRpfHC2D-22" value="slot1" style="rounded=0;whiteSpace=wrap;html=1;" vertex="1" parent="1">
          <mxGeometry x="437" y="404" width="60" height="60" as="geometry" />
        </mxCell>
        <mxCell id="GA6zOthMfiOWwRpfHC2D-23" value="" style="rounded=0;whiteSpace=wrap;html=1;" vertex="1" parent="1">
          <mxGeometry x="497" y="344" width="100" height="30" as="geometry" />
        </mxCell>
        <mxCell id="GA6zOthMfiOWwRpfHC2D-24" value="" style="rounded=0;whiteSpace=wrap;html=1;" vertex="1" parent="1">
          <mxGeometry x="497" y="374" width="100" height="30" as="geometry" />
        </mxCell>
        <mxCell id="GA6zOthMfiOWwRpfHC2D-25" value="" style="rounded=0;whiteSpace=wrap;html=1;" vertex="1" parent="1">
          <mxGeometry x="497" y="404" width="100" height="30" as="geometry" />
        </mxCell>
        <mxCell id="GA6zOthMfiOWwRpfHC2D-26" value="" style="rounded=0;whiteSpace=wrap;html=1;" vertex="1" parent="1">
          <mxGeometry x="497" y="434" width="100" height="30" as="geometry" />
        </mxCell>
        <mxCell id="GA6zOthMfiOWwRpfHC2D-27" value="..." style="rounded=0;whiteSpace=wrap;html=1;" vertex="1" parent="1">
          <mxGeometry x="437" y="464" width="60" height="60" as="geometry" />
        </mxCell>
        <mxCell id="GA6zOthMfiOWwRpfHC2D-28" value="" style="rounded=0;whiteSpace=wrap;html=1;" vertex="1" parent="1">
          <mxGeometry x="497" y="464" width="100" height="30" as="geometry" />
        </mxCell>
        <mxCell id="GA6zOthMfiOWwRpfHC2D-29" value="" style="rounded=0;whiteSpace=wrap;html=1;" vertex="1" parent="1">
          <mxGeometry x="497" y="494" width="100" height="30" as="geometry" />
        </mxCell>
        <mxCell id="GA6zOthMfiOWwRpfHC2D-30" value="slotY" style="rounded=0;whiteSpace=wrap;html=1;" vertex="1" parent="1">
          <mxGeometry x="437" y="524" width="60" height="60" as="geometry" />
        </mxCell>
        <mxCell id="GA6zOthMfiOWwRpfHC2D-31" value="" style="rounded=0;whiteSpace=wrap;html=1;" vertex="1" parent="1">
          <mxGeometry x="497" y="524" width="100" height="30" as="geometry" />
        </mxCell>
        <mxCell id="GA6zOthMfiOWwRpfHC2D-32" value="" style="rounded=0;whiteSpace=wrap;html=1;" vertex="1" parent="1">
          <mxGeometry x="497" y="554" width="100" height="30" as="geometry" />
        </mxCell>
        <mxCell id="GA6zOthMfiOWwRpfHC2D-33" value="..." style="rounded=0;whiteSpace=wrap;html=1;" vertex="1" parent="1">
          <mxGeometry x="437" y="584" width="60" height="60" as="geometry" />
        </mxCell>
        <mxCell id="GA6zOthMfiOWwRpfHC2D-34" value="" style="rounded=0;whiteSpace=wrap;html=1;" vertex="1" parent="1">
          <mxGeometry x="497" y="584" width="100" height="30" as="geometry" />
        </mxCell>
        <mxCell id="GA6zOthMfiOWwRpfHC2D-35" value="" style="rounded=0;whiteSpace=wrap;html=1;" vertex="1" parent="1">
          <mxGeometry x="497" y="614" width="100" height="30" as="geometry" />
        </mxCell>
        <mxCell id="GA6zOthMfiOWwRpfHC2D-36" value="" style="endArrow=classic;html=1;entryX=0;entryY=0;entryDx=0;entryDy=0;" edge="1" target="GA6zOthMfiOWwRpfHC2D-21" parent="1" source="GA6zOthMfiOWwRpfHC2D-11">
          <mxGeometry width="50" height="50" relative="1" as="geometry">
            <mxPoint x="445" y="350" as="sourcePoint" />
            <mxPoint x="485" y="310" as="targetPoint" />
          </mxGeometry>
        </mxCell>
        <mxCell id="GA6zOthMfiOWwRpfHC2D-37" value="进程B的cnode" style="text;html=1;strokeColor=none;fillColor=none;align=center;verticalAlign=middle;whiteSpace=wrap;rounded=0;" vertex="1" parent="1">
          <mxGeometry x="310" y="324" width="160" height="20" as="geometry" />
        </mxCell>
        <mxCell id="GA6zOthMfiOWwRpfHC2D-38" value="" style="rounded=0;whiteSpace=wrap;html=1;fillColor=#f5f5f5;strokeColor=#666666;fontColor=#333333;" vertex="1" parent="1">
          <mxGeometry x="130" y="480" width="120" height="40" as="geometry" />
        </mxCell>
        <mxCell id="GA6zOthMfiOWwRpfHC2D-39" value="" style="rounded=0;whiteSpace=wrap;html=1;fillColor=#f5f5f5;strokeColor=#666666;fontColor=#333333;" vertex="1" parent="1">
          <mxGeometry x="130" y="600" width="120" height="40" as="geometry" />
        </mxCell>
        <mxCell id="GA6zOthMfiOWwRpfHC2D-40" value="" style="rounded=0;whiteSpace=wrap;html=1;" vertex="1" parent="1">
          <mxGeometry x="130" y="520" width="120" height="30" as="geometry" />
        </mxCell>
        <mxCell id="GA6zOthMfiOWwRpfHC2D-41" value="" style="rounded=0;whiteSpace=wrap;html=1;" vertex="1" parent="1">
          <mxGeometry x="130" y="640" width="120" height="30" as="geometry" />
        </mxCell>
        <mxCell id="GA6zOthMfiOWwRpfHC2D-42" value="" style="rounded=0;whiteSpace=wrap;html=1;fillColor=#d5e8d4;strokeColor=#82b366;" vertex="1" parent="1">
          <mxGeometry x="130" y="550" width="120" height="10" as="geometry" />
        </mxCell>
        <mxCell id="GA6zOthMfiOWwRpfHC2D-43" value="" style="rounded=0;whiteSpace=wrap;html=1;fillColor=#f8cecc;strokeColor=#b85450;" vertex="1" parent="1">
          <mxGeometry x="130" y="670" width="120" height="10" as="geometry" />
        </mxCell>
        <mxCell id="GA6zOthMfiOWwRpfHC2D-44" value="tcb_rootserver" style="text;html=1;strokeColor=none;fillColor=none;align=center;verticalAlign=middle;whiteSpace=wrap;rounded=0;" vertex="1" parent="1">
          <mxGeometry x="280" y="500" width="40" height="20" as="geometry" />
        </mxCell>
        <mxCell id="GA6zOthMfiOWwRpfHC2D-45" value="tcb_B" style="text;html=1;strokeColor=none;fillColor=none;align=center;verticalAlign=middle;whiteSpace=wrap;rounded=0;" vertex="1" parent="1">
          <mxGeometry x="260" y="620" width="40" height="20" as="geometry" />
        </mxCell>
        <mxCell id="GA6zOthMfiOWwRpfHC2D-46" value="" style="edgeStyle=segmentEdgeStyle;endArrow=classic;html=1;dashed=1;exitX=0;exitY=0.5;exitDx=0;exitDy=0;dashPattern=1 1;strokeColor=#009900;" edge="1" parent="1" source="GA6zOthMfiOWwRpfHC2D-42">
          <mxGeometry width="50" height="50" relative="1" as="geometry">
            <mxPoint x="20" y="735" as="sourcePoint" />
            <mxPoint x="130" y="150" as="targetPoint" />
            <Array as="points">
              <mxPoint x="60" y="555" />
              <mxPoint x="60" y="150" />
            </Array>
          </mxGeometry>
        </mxCell>
        <mxCell id="GA6zOthMfiOWwRpfHC2D-48" value="" style="edgeStyle=segmentEdgeStyle;endArrow=classic;html=1;dashed=1;dashPattern=1 1;exitX=1;exitY=0.5;exitDx=0;exitDy=0;strokeColor=#FF0000;entryX=0.606;entryY=1.093;entryDx=0;entryDy=0;entryPerimeter=0;" edge="1" parent="1" source="GA6zOthMfiOWwRpfHC2D-43" target="GA6zOthMfiOWwRpfHC2D-37">
          <mxGeometry width="50" height="50" relative="1" as="geometry">
            <mxPoint x="250" y="680" as="sourcePoint" />
            <mxPoint x="300" y="630" as="targetPoint" />
          </mxGeometry>
        </mxCell>
        <mxCell id="GA6zOthMfiOWwRpfHC2D-49" value="" style="endArrow=classic;html=1;strokeColor=#009900;" edge="1" parent="1">
          <mxGeometry width="50" height="50" relative="1" as="geometry">
            <mxPoint x="280" y="520" as="sourcePoint" />
            <mxPoint x="250" y="520" as="targetPoint" />
          </mxGeometry>
        </mxCell>
        <mxCell id="GA6zOthMfiOWwRpfHC2D-50" value="" style="endArrow=classic;html=1;strokeColor=#FF0000;" edge="1" parent="1">
          <mxGeometry width="50" height="50" relative="1" as="geometry">
            <mxPoint x="280" y="639.67" as="sourcePoint" />
            <mxPoint x="250" y="639.67" as="targetPoint" />
          </mxGeometry>
        </mxCell>
      </root>
    </mxGraphModel>
  </diagram>
  <diagram id="XrJW71CT-f0KFa2B1o5i" name="第 2 页">
    <mxGraphModel dx="950" dy="514" grid="1" gridSize="10" guides="1" tooltips="1" connect="1" arrows="1" fold="1" page="1" pageScale="1" pageWidth="850" pageHeight="1100" math="0" shadow="0">
      <root>
        <mxCell id="EugHhYfA00DBPjp3gNxW-0" />
        <mxCell id="EugHhYfA00DBPjp3gNxW-1" parent="EugHhYfA00DBPjp3gNxW-0" />
        <mxCell id="EugHhYfA00DBPjp3gNxW-2" value="slot0" style="rounded=0;whiteSpace=wrap;html=1;" vertex="1" parent="EugHhYfA00DBPjp3gNxW-1">
          <mxGeometry x="130" y="150" width="60" height="60" as="geometry" />
        </mxCell>
        <mxCell id="EugHhYfA00DBPjp3gNxW-3" value="slot1" style="rounded=0;whiteSpace=wrap;html=1;" vertex="1" parent="EugHhYfA00DBPjp3gNxW-1">
          <mxGeometry x="130" y="210" width="60" height="60" as="geometry" />
        </mxCell>
        <mxCell id="EugHhYfA00DBPjp3gNxW-4" value="" style="rounded=0;whiteSpace=wrap;html=1;" vertex="1" parent="EugHhYfA00DBPjp3gNxW-1">
          <mxGeometry x="190" y="150" width="100" height="30" as="geometry" />
        </mxCell>
        <mxCell id="EugHhYfA00DBPjp3gNxW-5" value="" style="rounded=0;whiteSpace=wrap;html=1;" vertex="1" parent="EugHhYfA00DBPjp3gNxW-1">
          <mxGeometry x="190" y="180" width="100" height="30" as="geometry" />
        </mxCell>
        <mxCell id="EugHhYfA00DBPjp3gNxW-6" value="" style="rounded=0;whiteSpace=wrap;html=1;" vertex="1" parent="EugHhYfA00DBPjp3gNxW-1">
          <mxGeometry x="190" y="210" width="100" height="30" as="geometry" />
        </mxCell>
        <mxCell id="EugHhYfA00DBPjp3gNxW-7" value="" style="rounded=0;whiteSpace=wrap;html=1;" vertex="1" parent="EugHhYfA00DBPjp3gNxW-1">
          <mxGeometry x="190" y="240" width="100" height="30" as="geometry" />
        </mxCell>
        <mxCell id="EugHhYfA00DBPjp3gNxW-8" value="..." style="rounded=0;whiteSpace=wrap;html=1;" vertex="1" parent="EugHhYfA00DBPjp3gNxW-1">
          <mxGeometry x="130" y="270" width="60" height="60" as="geometry" />
        </mxCell>
        <mxCell id="EugHhYfA00DBPjp3gNxW-9" value="" style="rounded=0;whiteSpace=wrap;html=1;" vertex="1" parent="EugHhYfA00DBPjp3gNxW-1">
          <mxGeometry x="190" y="270" width="100" height="30" as="geometry" />
        </mxCell>
        <mxCell id="EugHhYfA00DBPjp3gNxW-10" value="" style="rounded=0;whiteSpace=wrap;html=1;" vertex="1" parent="EugHhYfA00DBPjp3gNxW-1">
          <mxGeometry x="190" y="300" width="100" height="30" as="geometry" />
        </mxCell>
        <mxCell id="EugHhYfA00DBPjp3gNxW-11" value="slotX" style="rounded=0;whiteSpace=wrap;html=1;" vertex="1" parent="EugHhYfA00DBPjp3gNxW-1">
          <mxGeometry x="130" y="330" width="60" height="60" as="geometry" />
        </mxCell>
        <mxCell id="EugHhYfA00DBPjp3gNxW-12" value="B cnode cap" style="rounded=0;whiteSpace=wrap;html=1;gradientColor=#ffd966;fillColor=#fff2cc;strokeColor=#d6b656;" vertex="1" parent="EugHhYfA00DBPjp3gNxW-1">
          <mxGeometry x="190" y="330" width="100" height="30" as="geometry" />
        </mxCell>
        <mxCell id="EugHhYfA00DBPjp3gNxW-13" value="" style="rounded=0;whiteSpace=wrap;html=1;" vertex="1" parent="EugHhYfA00DBPjp3gNxW-1">
          <mxGeometry x="190" y="360" width="100" height="30" as="geometry" />
        </mxCell>
        <mxCell id="EugHhYfA00DBPjp3gNxW-14" value="..." style="rounded=0;whiteSpace=wrap;html=1;" vertex="1" parent="EugHhYfA00DBPjp3gNxW-1">
          <mxGeometry x="130" y="390" width="60" height="60" as="geometry" />
        </mxCell>
        <mxCell id="EugHhYfA00DBPjp3gNxW-15" value="" style="rounded=0;whiteSpace=wrap;html=1;" vertex="1" parent="EugHhYfA00DBPjp3gNxW-1">
          <mxGeometry x="190" y="390" width="100" height="30" as="geometry" />
        </mxCell>
        <mxCell id="EugHhYfA00DBPjp3gNxW-16" value="" style="rounded=0;whiteSpace=wrap;html=1;" vertex="1" parent="EugHhYfA00DBPjp3gNxW-1">
          <mxGeometry x="190" y="420" width="100" height="30" as="geometry" />
        </mxCell>
        <mxCell id="EugHhYfA00DBPjp3gNxW-17" value="rootserver的cnode" style="text;html=1;strokeColor=none;fillColor=none;align=center;verticalAlign=middle;whiteSpace=wrap;rounded=0;" vertex="1" parent="EugHhYfA00DBPjp3gNxW-1">
          <mxGeometry x="20" y="130" width="120" height="20" as="geometry" />
        </mxCell>
        <mxCell id="EugHhYfA00DBPjp3gNxW-18" value="slot0" style="rounded=0;whiteSpace=wrap;html=1;" vertex="1" parent="EugHhYfA00DBPjp3gNxW-1">
          <mxGeometry x="437" y="344" width="60" height="60" as="geometry" />
        </mxCell>
        <mxCell id="EugHhYfA00DBPjp3gNxW-19" value="slot1" style="rounded=0;whiteSpace=wrap;html=1;" vertex="1" parent="EugHhYfA00DBPjp3gNxW-1">
          <mxGeometry x="437" y="404" width="60" height="60" as="geometry" />
        </mxCell>
        <mxCell id="EugHhYfA00DBPjp3gNxW-20" value="" style="rounded=0;whiteSpace=wrap;html=1;" vertex="1" parent="EugHhYfA00DBPjp3gNxW-1">
          <mxGeometry x="497" y="344" width="100" height="30" as="geometry" />
        </mxCell>
        <mxCell id="EugHhYfA00DBPjp3gNxW-21" value="" style="rounded=0;whiteSpace=wrap;html=1;" vertex="1" parent="EugHhYfA00DBPjp3gNxW-1">
          <mxGeometry x="497" y="374" width="100" height="30" as="geometry" />
        </mxCell>
        <mxCell id="EugHhYfA00DBPjp3gNxW-22" value="" style="rounded=0;whiteSpace=wrap;html=1;" vertex="1" parent="EugHhYfA00DBPjp3gNxW-1">
          <mxGeometry x="497" y="404" width="100" height="30" as="geometry" />
        </mxCell>
        <mxCell id="EugHhYfA00DBPjp3gNxW-23" value="" style="rounded=0;whiteSpace=wrap;html=1;" vertex="1" parent="EugHhYfA00DBPjp3gNxW-1">
          <mxGeometry x="497" y="434" width="100" height="30" as="geometry" />
        </mxCell>
        <mxCell id="EugHhYfA00DBPjp3gNxW-24" value="slot2" style="rounded=0;whiteSpace=wrap;html=1;" vertex="1" parent="EugHhYfA00DBPjp3gNxW-1">
          <mxGeometry x="437" y="464" width="60" height="60" as="geometry" />
        </mxCell>
        <mxCell id="EugHhYfA00DBPjp3gNxW-25" value="dst fault ep cap" style="rounded=0;whiteSpace=wrap;html=1;gradientColor=#7ea6e0;fillColor=#dae8fc;strokeColor=#6c8ebf;" vertex="1" parent="EugHhYfA00DBPjp3gNxW-1">
          <mxGeometry x="497" y="464" width="100" height="30" as="geometry" />
        </mxCell>
        <mxCell id="EugHhYfA00DBPjp3gNxW-26" value="mdb" style="rounded=0;whiteSpace=wrap;html=1;" vertex="1" parent="EugHhYfA00DBPjp3gNxW-1">
          <mxGeometry x="497" y="494" width="100" height="30" as="geometry" />
        </mxCell>
        <mxCell id="EugHhYfA00DBPjp3gNxW-27" value="..." style="rounded=0;whiteSpace=wrap;html=1;" vertex="1" parent="EugHhYfA00DBPjp3gNxW-1">
          <mxGeometry x="437" y="524" width="60" height="60" as="geometry" />
        </mxCell>
        <mxCell id="EugHhYfA00DBPjp3gNxW-28" value="" style="rounded=0;whiteSpace=wrap;html=1;" vertex="1" parent="EugHhYfA00DBPjp3gNxW-1">
          <mxGeometry x="497" y="524" width="100" height="30" as="geometry" />
        </mxCell>
        <mxCell id="EugHhYfA00DBPjp3gNxW-29" value="" style="rounded=0;whiteSpace=wrap;html=1;" vertex="1" parent="EugHhYfA00DBPjp3gNxW-1">
          <mxGeometry x="497" y="554" width="100" height="30" as="geometry" />
        </mxCell>
        <mxCell id="EugHhYfA00DBPjp3gNxW-33" value="" style="endArrow=classic;html=1;entryX=0;entryY=0;entryDx=0;entryDy=0;" edge="1" parent="EugHhYfA00DBPjp3gNxW-1" source="EugHhYfA00DBPjp3gNxW-12" target="EugHhYfA00DBPjp3gNxW-18">
          <mxGeometry width="50" height="50" relative="1" as="geometry">
            <mxPoint x="445" y="350" as="sourcePoint" />
            <mxPoint x="485" y="310" as="targetPoint" />
          </mxGeometry>
        </mxCell>
        <mxCell id="EugHhYfA00DBPjp3gNxW-34" value="进程B的cnode" style="text;html=1;strokeColor=none;fillColor=none;align=center;verticalAlign=middle;whiteSpace=wrap;rounded=0;" vertex="1" parent="EugHhYfA00DBPjp3gNxW-1">
          <mxGeometry x="345" y="324" width="80" height="20" as="geometry" />
        </mxCell>
        <mxCell id="EugHhYfA00DBPjp3gNxW-35" value="" style="rounded=0;whiteSpace=wrap;html=1;fillColor=#f5f5f5;strokeColor=#666666;fontColor=#333333;" vertex="1" parent="EugHhYfA00DBPjp3gNxW-1">
          <mxGeometry x="477" y="130" width="120" height="40" as="geometry" />
        </mxCell>
        <mxCell id="EugHhYfA00DBPjp3gNxW-36" value="" style="rounded=0;whiteSpace=wrap;html=1;fillColor=#f5f5f5;strokeColor=#666666;fontColor=#333333;" vertex="1" parent="EugHhYfA00DBPjp3gNxW-1">
          <mxGeometry x="480" y="245" width="120" height="40" as="geometry" />
        </mxCell>
        <mxCell id="EugHhYfA00DBPjp3gNxW-37" value="" style="rounded=0;whiteSpace=wrap;html=1;" vertex="1" parent="EugHhYfA00DBPjp3gNxW-1">
          <mxGeometry x="477" y="170" width="120" height="30" as="geometry" />
        </mxCell>
        <mxCell id="EugHhYfA00DBPjp3gNxW-38" value="" style="rounded=0;whiteSpace=wrap;html=1;" vertex="1" parent="EugHhYfA00DBPjp3gNxW-1">
          <mxGeometry x="480" y="285" width="120" height="30" as="geometry" />
        </mxCell>
        <mxCell id="EugHhYfA00DBPjp3gNxW-39" value="" style="rounded=0;whiteSpace=wrap;html=1;fillColor=#d5e8d4;strokeColor=#82b366;" vertex="1" parent="EugHhYfA00DBPjp3gNxW-1">
          <mxGeometry x="477" y="200" width="120" height="10" as="geometry" />
        </mxCell>
        <mxCell id="EugHhYfA00DBPjp3gNxW-40" value="" style="rounded=0;whiteSpace=wrap;html=1;fillColor=#f8cecc;strokeColor=#b85450;" vertex="1" parent="EugHhYfA00DBPjp3gNxW-1">
          <mxGeometry x="480" y="315" width="120" height="10" as="geometry" />
        </mxCell>
        <mxCell id="EugHhYfA00DBPjp3gNxW-41" value="tcb_rootserver" style="text;html=1;strokeColor=none;fillColor=none;align=center;verticalAlign=middle;whiteSpace=wrap;rounded=0;" vertex="1" parent="EugHhYfA00DBPjp3gNxW-1">
          <mxGeometry x="620" y="140" width="40" height="20" as="geometry" />
        </mxCell>
        <mxCell id="EugHhYfA00DBPjp3gNxW-42" value="tcb_B" style="text;html=1;strokeColor=none;fillColor=none;align=center;verticalAlign=middle;whiteSpace=wrap;rounded=0;" vertex="1" parent="EugHhYfA00DBPjp3gNxW-1">
          <mxGeometry x="610" y="255" width="40" height="20" as="geometry" />
        </mxCell>
        <mxCell id="EugHhYfA00DBPjp3gNxW-43" value="" style="edgeStyle=segmentEdgeStyle;endArrow=classic;html=1;dashed=1;exitX=0;exitY=0.5;exitDx=0;exitDy=0;dashPattern=1 1;strokeColor=#009900;entryX=1;entryY=0;entryDx=0;entryDy=0;" edge="1" parent="EugHhYfA00DBPjp3gNxW-1" source="EugHhYfA00DBPjp3gNxW-39" target="EugHhYfA00DBPjp3gNxW-4">
          <mxGeometry width="50" height="50" relative="1" as="geometry">
            <mxPoint x="20" y="735" as="sourcePoint" />
            <mxPoint x="130" y="150" as="targetPoint" />
            <Array as="points">
              <mxPoint x="410" y="205" />
              <mxPoint x="410" y="150" />
            </Array>
          </mxGeometry>
        </mxCell>
        <mxCell id="EugHhYfA00DBPjp3gNxW-44" value="" style="edgeStyle=segmentEdgeStyle;endArrow=classic;html=1;dashed=1;dashPattern=1 1;strokeColor=#FF0000;entryX=0;entryY=0;entryDx=0;entryDy=0;" edge="1" parent="EugHhYfA00DBPjp3gNxW-1" target="EugHhYfA00DBPjp3gNxW-18">
          <mxGeometry width="50" height="50" relative="1" as="geometry">
            <mxPoint x="480" y="320" as="sourcePoint" />
            <mxPoint x="430" y="346" as="targetPoint" />
          </mxGeometry>
        </mxCell>
        <mxCell id="EugHhYfA00DBPjp3gNxW-45" value="" style="endArrow=classic;html=1;strokeColor=#009900;" edge="1" parent="EugHhYfA00DBPjp3gNxW-1">
          <mxGeometry width="50" height="50" relative="1" as="geometry">
            <mxPoint x="627" y="170" as="sourcePoint" />
            <mxPoint x="597" y="170" as="targetPoint" />
          </mxGeometry>
        </mxCell>
        <mxCell id="EugHhYfA00DBPjp3gNxW-46" value="" style="endArrow=classic;html=1;strokeColor=#FF0000;" edge="1" parent="EugHhYfA00DBPjp3gNxW-1">
          <mxGeometry width="50" height="50" relative="1" as="geometry">
            <mxPoint x="630" y="284.6700000000001" as="sourcePoint" />
            <mxPoint x="600" y="284.6700000000001" as="targetPoint" />
          </mxGeometry>
        </mxCell>
        <mxCell id="EugHhYfA00DBPjp3gNxW-48" value="" style="endArrow=classic;html=1;entryX=0;entryY=0;entryDx=0;entryDy=0;" edge="1" parent="EugHhYfA00DBPjp3gNxW-1">
          <mxGeometry width="50" height="50" relative="1" as="geometry">
            <mxPoint x="40" y="149" as="sourcePoint" />
            <mxPoint x="130" y="149.25" as="targetPoint" />
          </mxGeometry>
        </mxCell>
        <mxCell id="EugHhYfA00DBPjp3gNxW-49" value="slot-N" style="rounded=0;whiteSpace=wrap;html=1;" vertex="1" parent="EugHhYfA00DBPjp3gNxW-1">
          <mxGeometry x="130" y="449" width="60" height="60" as="geometry" />
        </mxCell>
        <mxCell id="EugHhYfA00DBPjp3gNxW-50" value="src fault ep cap" style="rounded=0;whiteSpace=wrap;html=1;gradientColor=#ea6b66;fillColor=#f8cecc;strokeColor=#b85450;" vertex="1" parent="EugHhYfA00DBPjp3gNxW-1">
          <mxGeometry x="190" y="449" width="100" height="30" as="geometry" />
        </mxCell>
        <mxCell id="EugHhYfA00DBPjp3gNxW-51" value="mdb" style="rounded=0;whiteSpace=wrap;html=1;" vertex="1" parent="EugHhYfA00DBPjp3gNxW-1">
          <mxGeometry x="190" y="479" width="100" height="30" as="geometry" />
        </mxCell>
        <mxCell id="EugHhYfA00DBPjp3gNxW-52" value="..." style="rounded=0;whiteSpace=wrap;html=1;" vertex="1" parent="EugHhYfA00DBPjp3gNxW-1">
          <mxGeometry x="130" y="509" width="60" height="60" as="geometry" />
        </mxCell>
        <mxCell id="EugHhYfA00DBPjp3gNxW-53" value="" style="rounded=0;whiteSpace=wrap;html=1;" vertex="1" parent="EugHhYfA00DBPjp3gNxW-1">
          <mxGeometry x="190" y="509" width="100" height="30" as="geometry" />
        </mxCell>
        <mxCell id="EugHhYfA00DBPjp3gNxW-54" value="" style="rounded=0;whiteSpace=wrap;html=1;" vertex="1" parent="EugHhYfA00DBPjp3gNxW-1">
          <mxGeometry x="190" y="539" width="100" height="30" as="geometry" />
        </mxCell>
        <mxCell id="EugHhYfA00DBPjp3gNxW-61" value="endpoint" style="rounded=0;whiteSpace=wrap;html=1;gradientColor=#b3b3b3;fillColor=#f5f5f5;strokeColor=#666666;" vertex="1" parent="EugHhYfA00DBPjp3gNxW-1">
          <mxGeometry x="320" y="410" width="80" height="24" as="geometry" />
        </mxCell>
        <mxCell id="EugHhYfA00DBPjp3gNxW-62" value="" style="edgeStyle=segmentEdgeStyle;endArrow=classic;html=1;strokeColor=#FF3333;dashed=1;" edge="1" parent="EugHhYfA00DBPjp3gNxW-1">
          <mxGeometry width="50" height="50" relative="1" as="geometry">
            <mxPoint x="290" y="468" as="sourcePoint" />
            <mxPoint x="320" y="434" as="targetPoint" />
            <Array as="points">
              <mxPoint x="320" y="468" />
            </Array>
          </mxGeometry>
        </mxCell>
        <mxCell id="EugHhYfA00DBPjp3gNxW-64" value="" style="endArrow=classic;html=1;dashed=1;strokeColor=#007FFF;" edge="1" parent="EugHhYfA00DBPjp3gNxW-1">
          <mxGeometry width="50" height="50" relative="1" as="geometry">
            <mxPoint x="80" y="160" as="sourcePoint" />
            <mxPoint x="80" y="480" as="targetPoint" />
          </mxGeometry>
        </mxCell>
        <mxCell id="EugHhYfA00DBPjp3gNxW-66" value="process-&amp;gt;fault_ep.cptr" style="edgeLabel;html=1;align=center;verticalAlign=middle;resizable=0;points=[];" vertex="1" connectable="0" parent="EugHhYfA00DBPjp3gNxW-64">
          <mxGeometry x="-0.0918" y="-2" relative="1" as="geometry">
            <mxPoint x="-18" y="-5" as="offset" />
          </mxGeometry>
        </mxCell>
        <mxCell id="EugHhYfA00DBPjp3gNxW-67" value="" style="endArrow=none;html=1;strokeColor=#007FFF;" edge="1" parent="EugHhYfA00DBPjp3gNxW-1">
          <mxGeometry width="50" height="50" relative="1" as="geometry">
            <mxPoint x="60" y="480" as="sourcePoint" />
            <mxPoint x="100" y="480" as="targetPoint" />
          </mxGeometry>
        </mxCell>
        <mxCell id="EugHhYfA00DBPjp3gNxW-68" value="" style="edgeStyle=segmentEdgeStyle;endArrow=classic;html=1;strokeColor=#007FFF;exitX=1;exitY=0.25;exitDx=0;exitDy=0;dashed=1;entryX=0.99;entryY=1.01;entryDx=0;entryDy=0;entryPerimeter=0;" edge="1" parent="EugHhYfA00DBPjp3gNxW-1" source="EugHhYfA00DBPjp3gNxW-24" target="EugHhYfA00DBPjp3gNxW-61">
          <mxGeometry width="50" height="50" relative="1" as="geometry">
            <mxPoint x="350" y="479" as="sourcePoint" />
            <mxPoint x="405" y="440" as="targetPoint" />
            <Array as="points">
              <mxPoint x="399" y="479" />
              <mxPoint x="399" y="440" />
            </Array>
          </mxGeometry>
        </mxCell>
        <mxCell id="EugHhYfA00DBPjp3gNxW-70" value="" style="endArrow=classic;html=1;dashed=1;strokeColor=#FF9999;" edge="1" parent="EugHhYfA00DBPjp3gNxW-1">
          <mxGeometry width="50" height="50" relative="1" as="geometry">
            <mxPoint x="620" y="340" as="sourcePoint" />
            <mxPoint x="620" y="480" as="targetPoint" />
          </mxGeometry>
        </mxCell>
        <mxCell id="EugHhYfA00DBPjp3gNxW-81" value="&lt;span style=&quot;font-size: 12px ; text-align: left ; background-color: rgb(248 , 249 , 250)&quot;&gt;process-&amp;gt;cspace_next_free&lt;/span&gt;" style="edgeLabel;html=1;align=center;verticalAlign=middle;resizable=0;points=[];" vertex="1" connectable="0" parent="EugHhYfA00DBPjp3gNxW-70">
          <mxGeometry x="-0.1061" y="2" relative="1" as="geometry">
            <mxPoint x="58" y="1" as="offset" />
          </mxGeometry>
        </mxCell>
        <mxCell id="EugHhYfA00DBPjp3gNxW-72" value="" style="endArrow=none;html=1;strokeColor=#FF6666;" edge="1" parent="EugHhYfA00DBPjp3gNxW-1">
          <mxGeometry width="50" height="50" relative="1" as="geometry">
            <mxPoint x="610" y="480" as="sourcePoint" />
            <mxPoint x="630" y="480" as="targetPoint" />
          </mxGeometry>
        </mxCell>
        <mxCell id="EugHhYfA00DBPjp3gNxW-73" value="" style="endArrow=none;html=1;strokeColor=#FFCCCC;" edge="1" parent="EugHhYfA00DBPjp3gNxW-1">
          <mxGeometry width="50" height="50" relative="1" as="geometry">
            <mxPoint x="610" y="340" as="sourcePoint" />
            <mxPoint x="630" y="340" as="targetPoint" />
          </mxGeometry>
        </mxCell>
        <mxCell id="EugHhYfA00DBPjp3gNxW-74" value="" style="endArrow=classic;html=1;strokeColor=#0000FF;dashed=1;" edge="1" parent="EugHhYfA00DBPjp3gNxW-1">
          <mxGeometry width="50" height="50" relative="1" as="geometry">
            <mxPoint x="310" y="160" as="sourcePoint" />
            <mxPoint x="310" y="340" as="targetPoint" />
          </mxGeometry>
        </mxCell>
        <mxCell id="EugHhYfA00DBPjp3gNxW-75" value="process-&amp;gt;cspace.cptr" style="edgeLabel;html=1;align=center;verticalAlign=middle;resizable=0;points=[];" vertex="1" connectable="0" parent="EugHhYfA00DBPjp3gNxW-74">
          <mxGeometry x="-0.0933" relative="1" as="geometry">
            <mxPoint x="40" y="3" as="offset" />
          </mxGeometry>
        </mxCell>
        <mxCell id="EugHhYfA00DBPjp3gNxW-76" value="" style="endArrow=none;html=1;strokeColor=#0000FF;" edge="1" parent="EugHhYfA00DBPjp3gNxW-1">
          <mxGeometry width="50" height="50" relative="1" as="geometry">
            <mxPoint x="300" y="343.95" as="sourcePoint" />
            <mxPoint x="320" y="343.95" as="targetPoint" />
            <Array as="points">
              <mxPoint x="310" y="343.95" />
            </Array>
          </mxGeometry>
        </mxCell>
        <mxCell id="EugHhYfA00DBPjp3gNxW-79" value="" style="edgeStyle=segmentEdgeStyle;endArrow=classic;html=1;entryX=1;entryY=0.807;entryDx=0;entryDy=0;entryPerimeter=0;startArrow=classicThin;startFill=1;strokeColor=#3333FF;dashed=1;dashPattern=1 1;" edge="1" parent="EugHhYfA00DBPjp3gNxW-1" target="EugHhYfA00DBPjp3gNxW-24">
          <mxGeometry width="50" height="50" relative="1" as="geometry">
            <mxPoint x="290" y="494" as="sourcePoint" />
            <mxPoint x="340" y="444" as="targetPoint" />
            <Array as="points">
              <mxPoint x="350" y="494" />
              <mxPoint x="350" y="512" />
            </Array>
          </mxGeometry>
        </mxCell>
      </root>
    </mxGraphModel>
  </diagram>
</mxfile>
